<svg height="512pt" viewBox="0 0 512 512" width="512pt" xmlns="http://www.w3.org/2000/svg"><path d="m504.40625 205.742188c4.183594 0 7.574219-3.390626 7.574219-7.574219v-38.210938c0-31.609375-19.460938-59.414062-48.792969-70.351562-7.496094-18.648438-22.492188-33.808594-41.058594-41.511719-10.878906-28.101562-38.175781-48.09375-70.070312-48.09375h-38.839844c-4.183594 0-7.574219 3.390625-7.574219 7.574219 0 4.183593 3.390625 7.574219 7.574219 7.574219h38.839844c33.070312 0 59.972656 26.902343 59.972656 59.972656v189.425781l-104.964844-118.460937c-1.4375-1.621094-3.5-2.550782-5.667968-2.550782-2.167969 0-4.230469.929688-5.667969 2.550782l-113.066407 127.601562-65.242187-60.582031c-2.929687-2.722657-7.476563-2.695313-10.375.0625l-91.898437 87.453125v-225.503906c0-33.066407 26.902343-59.96875 59.96875-59.96875h179c4.183593 0 7.574218-3.390626 7.574218-7.574219 0-4.183594-3.390625-7.574219-7.574218-7.574219h-179c-41.417969 0-75.117188 33.699219-75.117188 75.117188v276.941406c0 31.253906 19.191406 58.101562 46.40625 69.40625 7.71875 20.007812 23.738281 35.867187 43.8125 43.367187 11.351562 28.363281 38.90625 47.167969 69.726562 47.167969h276.914063c41.421875 0 75.121094-33.699219 75.121094-75.121094v-202.609375c0-4.183593-3.390625-7.574219-7.574219-7.574219s-7.574219 3.390626-7.574219 7.574219v202.609375c0 33.070313-26.902343 59.972656-59.972656 59.972656h-276.914063c-20.757812 0-39.664062-10.683593-50.507812-27.617187 2.34375.21875 4.707031.34375 7.074219.34375h276.933593c41.421876 0 75.121094-33.699219 75.121094-75.121094v-276.933593c0-2.964844-.179687-5.90625-.519531-8.824219 17.640625 10.679687 28.785156 29.878906 28.785156 51.257812v38.210938c0 4.183593 3.390625 7.574219 7.574219 7.574219zm-489.257812 146.316406v-30.527344l97.183593-92.484375 65.707031 61.015625c1.492188 1.386719 3.488282 2.101562 5.523438 2.011719 2.035156-.097657 3.945312-1.015625 5.296875-2.539063l112.539063-127.007812 110.632812 124.855468v64.675782c0 33.066406-26.902344 59.972656-59.972656 59.972656h-276.941406c-33.066407 0-59.96875-26.90625-59.96875-59.972656zm438.273437 42.398437c0 33.070313-26.90625 59.972657-59.976563 59.972657h-276.933593c-6.1875 0-12.296875-.945313-18.15625-2.804688-.0625-.019531-.128907-.039062-.195313-.058594-13.449218-4.3125-24.835937-13.265625-32.28125-24.976562 3.03125.375 6.109375.589844 9.238282.589844h276.941406c41.417968 0 75.117187-33.699219 75.117187-75.121094v-276.941406c0-2.488282-.128906-4.953126-.367187-7.382813 10.757812 7.257813 19.121094 17.921875 23.375 30.316406 2.148437 6.246094 3.234375 12.796875 3.234375 19.472657v276.933593zm0 0"/><path d="m57.414062 98.761719c0 22.796875 18.546876 41.34375 41.347657 41.34375 22.796875 0 41.347656-18.546875 41.347656-41.34375 0-22.800781-18.550781-41.347657-41.347656-41.347657-22.800781 0-41.347657 18.546876-41.347657 41.347657zm67.546876 0c0 14.445312-11.753907 26.199219-26.199219 26.199219-14.449219 0-26.199219-11.753907-26.199219-26.199219 0-14.449219 11.75-26.199219 26.199219-26.199219 14.445312 0 26.199219 11.75 26.199219 26.199219zm0 0"/></svg>